<?xml version="1.0" encoding="UTF-8"?>
<svg id="Layer_1" xmlns="http://www.w3.org/2000/svg" version="1.1" viewBox="0 0 1920 667.23">
  <!-- Generator: Adobe Illustrator 30.3.0, SVG Export Plug-In . SVG Version: 2.1.3 Build 182)  -->
  <defs>
    <style>
      .st0 {
        fill: #231f20;
      }

      .st1 {
        fill: #d75027;
      }
    </style>
  </defs>
  <g>
    <rect class="st1" width="20.04" height="668.12"/>
    <rect class="st1" x="535.84" width="20.04" height="560.78"/>
    <rect class="st1" x="725.58" y="106.45" width="20.04" height="560.78"/>
    <rect class="st1" x="112.24" y="106.45" width="20.04" height="454.1"/>
    <rect class="st1" x="324.04" y="328.94" width="20.04" height="443.63" transform="translate(884.82 216.7) rotate(90)"/>
    <rect class="st1" x="362.79" y="285.29" width="20.04" height="745.63" transform="translate(1030.92 285.29) rotate(90)"/>
    <rect class="st1" x="418.91" y="-200.21" width="20.04" height="633.38" transform="translate(545.41 -312.46) rotate(90)"/>
    <rect class="st1" x="267.92" y="-267.92" width="20.04" height="555.88" transform="translate(287.96 -267.92) rotate(90)"/>
  </g>
  <g>
    <path class="st0" d="M832.26,643.79v-39.1h12.05c2.48,0,4.61.51,6.39,1.53s3.14,2.41,4.1,4.18,1.43,3.79,1.43,6.05-.48,4.25-1.43,6.01c-.95,1.77-2.32,3.17-4.1,4.19-1.78,1.02-3.9,1.54-6.37,1.54h-10.39v-2.21h10.33c2.01,0,3.73-.41,5.15-1.23s2.52-1.95,3.28-3.38c.76-1.43,1.15-3.07,1.15-4.92s-.38-3.51-1.15-4.94c-.76-1.44-1.86-2.56-3.29-3.38s-3.15-1.22-5.17-1.22h-9.6v36.89h-2.39Z"/>
    <path class="st0" d="M876.75,643.79v-39.1h12.05c2.47,0,4.59.48,6.38,1.45,1.78.97,3.15,2.31,4.11,4.02s1.43,3.7,1.43,5.97-.48,4.21-1.43,5.91-2.32,3.03-4.09,3.98-3.9,1.43-6.37,1.43h-10.79v-2.23h10.73c2.01,0,3.73-.38,5.16-1.13s2.52-1.8,3.28-3.16c.76-1.36,1.15-2.96,1.15-4.8s-.38-3.48-1.15-4.86c-.76-1.38-1.86-2.45-3.3-3.22s-3.15-1.15-5.16-1.15h-9.6v36.89h-2.39ZM892.81,626.07l9.62,17.72h-2.75l-9.56-17.72h2.69Z"/>
    <path class="st0" d="M921.62,643.79v-39.1h21.76v2.22h-19.38v16.21h18.21v2.21h-18.21v16.25h19.84v2.21h-22.22Z"/>
    <path class="st0" d="M994.41,616.91h-2.44c-.25-1.32-.73-2.61-1.43-3.85-.7-1.24-1.6-2.36-2.7-3.36s-2.38-1.79-3.83-2.38c-1.45-.58-3.05-.88-4.81-.88-2.57,0-4.94.69-7.09,2.05s-3.88,3.38-5.17,6.02c-1.29,2.65-1.94,5.89-1.94,9.72s.65,7.11,1.94,9.76c1.29,2.65,3.02,4.65,5.17,6,2.16,1.36,4.52,2.03,7.09,2.03,1.76,0,3.36-.29,4.81-.87,1.45-.58,2.73-1.37,3.83-2.37s2-2.12,2.7-3.37,1.18-2.53,1.43-3.86h2.44c-.28,1.58-.82,3.13-1.61,4.64-.79,1.52-1.84,2.89-3.13,4.11s-2.81,2.2-4.56,2.92c-1.75.72-3.72,1.08-5.91,1.08-3.26,0-6.13-.83-8.61-2.49-2.48-1.66-4.43-4-5.83-7.02-1.41-3.02-2.11-6.54-2.11-10.58s.71-7.56,2.11-10.58c1.41-3.02,3.35-5.36,5.83-7.02,2.48-1.66,5.35-2.49,8.61-2.49,2.19,0,4.16.36,5.91,1.08,1.75.72,3.27,1.69,4.56,2.9,1.29,1.22,2.34,2.58,3.13,4.09.79,1.52,1.33,3.07,1.61,4.68Z"/>
    <path class="st0" d="M1017.33,604.69v39.1h-2.39v-39.1h2.39Z"/>
    <path class="st0" d="M1061.07,614.46c-.2-2.43-1.19-4.4-2.97-5.9s-4.07-2.25-6.88-2.25c-1.9,0-3.58.35-5.06,1.05-1.48.7-2.63,1.66-3.47,2.86-.84,1.21-1.26,2.6-1.26,4.16,0,1.01.19,1.91.58,2.72.39.81.94,1.53,1.65,2.16.71.63,1.56,1.18,2.54,1.65.98.47,2.06.88,3.25,1.24l4.28,1.26c1.46.45,2.82.96,4.06,1.55,1.24.59,2.32,1.28,3.25,2.09.92.81,1.64,1.75,2.16,2.84.51,1.08.77,2.33.77,3.74,0,2.06-.53,3.91-1.59,5.54-1.06,1.63-2.57,2.91-4.53,3.85-1.95.93-4.25,1.4-6.9,1.4s-4.71-.43-6.58-1.28c-1.86-.85-3.34-2.04-4.42-3.56-1.08-1.52-1.69-3.27-1.83-5.26h2.44c.13,1.62.65,3.01,1.55,4.19.91,1.18,2.12,2.08,3.64,2.72,1.52.63,3.25.95,5.19.95,2.1,0,3.95-.36,5.56-1.08,1.6-.72,2.86-1.72,3.76-3.01.9-1.29,1.36-2.78,1.36-4.49,0-1.37-.32-2.55-.97-3.53-.65-.98-1.61-1.83-2.87-2.54-1.27-.71-2.83-1.35-4.71-1.91l-4.56-1.38c-3.05-.93-5.39-2.2-7-3.8-1.61-1.61-2.42-3.6-2.42-6,0-2.01.53-3.8,1.61-5.36,1.07-1.56,2.52-2.79,4.36-3.68,1.84-.89,3.92-1.34,6.23-1.34s4.39.45,6.17,1.34c1.78.9,3.19,2.13,4.24,3.69,1.04,1.56,1.62,3.34,1.74,5.34h-2.35Z"/>
    <path class="st0" d="M1087.12,604.69v39.1h-2.39v-39.1h2.39Z"/>
    <path class="st0" d="M1140.89,624.24c0,4.04-.7,7.56-2.1,10.57-1.4,3.01-3.34,5.35-5.83,7.02-2.49,1.67-5.36,2.5-8.6,2.5s-6.13-.84-8.62-2.51c-2.49-1.68-4.43-4.02-5.83-7.03-1.4-3.01-2.1-6.53-2.1-10.55s.7-7.55,2.11-10.56c1.41-3,3.35-5.34,5.83-7.02,2.48-1.68,5.35-2.51,8.61-2.51s6.11.83,8.6,2.5c2.49,1.67,4.43,4.01,5.83,7.02,1.4,3.01,2.1,6.53,2.1,10.57ZM1138.56,624.24c0-3.63-.61-6.77-1.82-9.43-1.22-2.66-2.89-4.72-5.03-6.17-2.14-1.46-4.59-2.19-7.35-2.19s-5.21.72-7.35,2.17c-2.14,1.45-3.82,3.5-5.03,6.17-1.22,2.67-1.82,5.82-1.82,9.46s.6,6.74,1.8,9.4c1.2,2.67,2.87,4.73,5.01,6.2,2.14,1.46,4.6,2.2,7.39,2.2s5.21-.73,7.35-2.19c2.14-1.46,3.81-3.51,5.03-6.17,1.22-2.66,1.82-5.8,1.82-9.43Z"/>
    <path class="st0" d="M1191.45,604.69v39.1h-2.33l-24.94-34.77h-.23v34.77h-2.39v-39.1h2.35l24.94,34.81h.23v-34.81h2.37Z"/>
    <path class="st0" d="M1242.38,604.69v39.1h-2.39v-39.1h2.39Z"/>
    <path class="st0" d="M1294.92,604.69v39.1h-2.33l-24.94-34.77h-.23v34.77h-2.39v-39.1h2.35l24.94,34.81h.23v-34.81h2.37Z"/>
    <path class="st0" d="M1343.47,643.79v-39.1h21.76v2.22h-19.38v16.21h18.21v2.21h-18.21v16.25h19.84v2.21h-22.22Z"/>
    <path class="st0" d="M1384.96,604.69l12.83,36.03h.27l12.83-36.03h2.52l-14.11,39.1h-2.75l-14.11-39.1h2.52Z"/>
    <path class="st0" d="M1432.05,643.79v-39.1h21.76v2.22h-19.38v16.21h18.21v2.21h-18.21v16.25h19.84v2.21h-22.22Z"/>
    <path class="st0" d="M1475.05,643.79v-39.1h12.05c2.47,0,4.6.48,6.38,1.45s3.15,2.31,4.11,4.02,1.43,3.7,1.43,5.97-.48,4.21-1.43,5.91c-.95,1.7-2.32,3.03-4.1,3.98s-3.9,1.43-6.37,1.43h-10.79v-2.23h10.73c2.01,0,3.73-.38,5.15-1.13s2.52-1.8,3.28-3.16c.76-1.36,1.15-2.96,1.15-4.8s-.38-3.48-1.15-4.86c-.76-1.38-1.86-2.45-3.29-3.22s-3.15-1.15-5.17-1.15h-9.6v36.89h-2.39ZM1491.11,626.07l9.62,17.72h-2.75l-9.57-17.72h2.69Z"/>
    <path class="st0" d="M1514.29,604.69h2.83l12.31,18.86h.27l12.31-18.86h2.83l-14.07,21.36v17.74h-2.4v-17.74l-14.07-21.36Z"/>
    <path class="st0" d="M1619.19,616.91h-2.45c-.25-1.32-.73-2.61-1.43-3.85-.7-1.24-1.6-2.36-2.7-3.36-1.1-1-2.38-1.79-3.83-2.38-1.45-.58-3.05-.88-4.81-.88-2.57,0-4.94.69-7.09,2.05-2.16,1.37-3.88,3.38-5.17,6.02-1.29,2.65-1.94,5.89-1.94,9.72s.65,7.11,1.94,9.76c1.29,2.65,3.02,4.65,5.17,6,2.16,1.36,4.52,2.03,7.09,2.03,1.76,0,3.36-.29,4.81-.87,1.45-.58,2.73-1.37,3.83-2.37,1.1-1,2-2.12,2.7-3.37.7-1.25,1.18-2.53,1.43-3.86h2.45c-.28,1.58-.82,3.13-1.61,4.64-.8,1.52-1.84,2.89-3.13,4.11s-2.81,2.2-4.56,2.92c-1.75.72-3.72,1.08-5.91,1.08-3.26,0-6.13-.83-8.61-2.49-2.48-1.66-4.43-4-5.83-7.02-1.41-3.02-2.11-6.54-2.11-10.58s.7-7.56,2.11-10.58c1.41-3.02,3.35-5.36,5.83-7.02,2.48-1.66,5.35-2.49,8.61-2.49,2.19,0,4.16.36,5.91,1.08,1.75.72,3.27,1.69,4.56,2.9s2.33,2.58,3.13,4.09c.79,1.52,1.33,3.07,1.61,4.68Z"/>
    <path class="st0" d="M1670.82,624.24c0,4.04-.7,7.56-2.1,10.57-1.4,3.01-3.35,5.35-5.83,7.02-2.49,1.67-5.36,2.5-8.6,2.5s-6.13-.84-8.62-2.51c-2.49-1.68-4.43-4.02-5.83-7.03-1.4-3.01-2.1-6.53-2.1-10.55s.71-7.55,2.11-10.56c1.41-3,3.35-5.34,5.83-7.02,2.48-1.68,5.35-2.51,8.61-2.51s6.11.83,8.6,2.5c2.49,1.67,4.43,4.01,5.83,7.02,1.4,3.01,2.1,6.53,2.1,10.57ZM1668.49,624.24c0-3.63-.61-6.77-1.82-9.43-1.22-2.66-2.89-4.72-5.03-6.17-2.14-1.46-4.59-2.19-7.35-2.19s-5.21.72-7.35,2.17c-2.14,1.45-3.81,3.5-5.03,6.17-1.22,2.67-1.82,5.82-1.82,9.46s.6,6.74,1.8,9.4c1.2,2.67,2.87,4.73,5.01,6.2,2.14,1.46,4.6,2.2,7.39,2.2s5.21-.73,7.35-2.19c2.14-1.46,3.82-3.51,5.03-6.17,1.22-2.66,1.82-5.8,1.82-9.43Z"/>
    <path class="st0" d="M1691.5,643.79v-39.1h12.05c2.47,0,4.59.48,6.38,1.45,1.78.97,3.15,2.31,4.11,4.02s1.43,3.7,1.43,5.97-.48,4.21-1.43,5.91c-.95,1.7-2.32,3.03-4.09,3.98-1.78.95-3.9,1.43-6.37,1.43h-10.79v-2.23h10.73c2.01,0,3.73-.38,5.16-1.13s2.52-1.8,3.28-3.16c.76-1.36,1.15-2.96,1.15-4.8s-.38-3.48-1.15-4.86c-.76-1.38-1.86-2.45-3.3-3.22s-3.15-1.15-5.16-1.15h-9.6v36.89h-2.39ZM1707.56,626.07l9.62,17.72h-2.75l-9.56-17.72h2.69Z"/>
    <path class="st0" d="M1766.26,604.69v39.1h-2.33l-24.94-34.77h-.23v34.77h-2.39v-39.1h2.35l24.94,34.81h.23v-34.81h2.37Z"/>
    <path class="st0" d="M1788.92,643.79v-39.1h21.77v2.22h-19.38v16.21h18.22v2.21h-18.22v16.25h19.84v2.21h-22.22Z"/>
    <path class="st0" d="M1831.92,643.79v-39.1h12.05c2.47,0,4.6.48,6.38,1.45,1.78.97,3.15,2.31,4.11,4.02s1.43,3.7,1.43,5.97-.48,4.21-1.43,5.91c-.95,1.7-2.32,3.03-4.1,3.98-1.78.95-3.9,1.43-6.37,1.43h-10.79v-2.23h10.73c2.01,0,3.73-.38,5.15-1.13s2.52-1.8,3.28-3.16,1.15-2.96,1.15-4.8-.38-3.48-1.15-4.86-1.86-2.45-3.29-3.22-3.15-1.15-5.17-1.15h-9.6v36.89h-2.39ZM1847.98,626.07l9.62,17.72h-2.75l-9.57-17.72h2.69Z"/>
  </g>
  <g>
    <g>
      <path class="st1" d="M833.43,303.63V106.35h126.38v29.96h-90.64v53.56h81.97v29.96h-81.97v83.8h-35.74Z"/>
      <path class="st1" d="M992.27,303.63V106.35h73.98c15.16,0,27.89,2.63,38.19,7.9,10.31,5.27,18.11,12.64,23.41,22.11,5.3,9.47,7.95,20.5,7.95,33.09s-2.68,23.62-8.04,32.89c-5.36,9.28-13.25,16.44-23.65,21.48-10.4,5.04-23.18,7.56-38.34,7.56h-52.69v-29.67h47.87c8.86,0,16.12-1.23,21.77-3.71,5.65-2.47,9.84-6.1,12.57-10.88,2.73-4.78,4.09-10.67,4.09-17.67s-1.38-12.99-4.14-17.97c-2.76-4.97-6.97-8.77-12.62-11.37-5.65-2.6-12.94-3.9-21.87-3.9h-32.75v167.42h-35.74ZM1094.19,214.24l48.84,89.39h-39.88l-47.97-89.39h39.01Z"/>
      <path class="st1" d="M1194.08,303.63h-38.15l69.45-197.28h44.12l69.55,197.28h-38.15l-52.69-156.82h-1.54l-52.6,156.82ZM1195.33,226.28h104.03v28.71h-104.03v-28.71Z"/>
      <path class="st1" d="M1365.06,106.35h43.73l58.57,142.95h2.31l58.57-142.95h43.73v197.28h-34.29v-135.53h-1.83l-54.52,134.95h-25.62l-54.52-135.24h-1.83v135.82h-34.29V106.35Z"/>
      <path class="st1" d="M1610.89,303.63V106.35h128.31v29.96h-92.57v53.56h85.92v29.96h-85.92v53.85h93.34v29.96h-129.08Z"/>
      <path class="st1" d="M1882.91,160.58c-.9-8.41-4.67-14.96-11.32-19.65-6.65-4.69-15.27-7.03-25.86-7.03-7.45,0-13.84,1.12-19.17,3.37-5.33,2.25-9.41,5.3-12.23,9.15-2.83,3.85-4.27,8.25-4.34,13.19,0,4.11.95,7.67,2.84,10.69,1.89,3.02,4.48,5.57,7.75,7.66,3.27,2.09,6.9,3.84,10.88,5.25,3.98,1.41,8,2.6,12.04,3.56l18.49,4.62c7.45,1.73,14.63,4.08,21.53,7.03,6.9,2.96,13.1,6.68,18.59,11.17,5.49,4.5,9.84,9.92,13.05,16.28,3.21,6.36,4.82,13.81,4.82,22.35,0,11.56-2.95,21.72-8.86,30.49-5.91,8.77-14.43,15.61-25.57,20.52-11.14,4.91-24.61,7.37-40.41,7.37s-28.66-2.38-39.93-7.13c-11.27-4.75-20.07-11.69-26.39-20.81-6.33-9.12-9.74-20.23-10.26-33.33h35.16c.51,6.87,2.63,12.59,6.36,17.14,3.72,4.56,8.59,7.96,14.59,10.21,6,2.25,12.73,3.37,20.18,3.37s14.59-1.17,20.47-3.52c5.88-2.34,10.48-5.62,13.82-9.82,3.34-4.2,5.04-9.13,5.11-14.79-.06-5.14-1.57-9.39-4.53-12.76-2.95-3.37-7.08-6.19-12.38-8.48-5.3-2.28-11.48-4.32-18.54-6.12l-22.44-5.78c-16.25-4.17-29.08-10.51-38.48-19.02-9.41-8.51-14.11-19.83-14.11-33.96,0-11.62,3.16-21.8,9.49-30.53,6.32-8.73,14.95-15.52,25.86-20.37,10.92-4.85,23.28-7.27,37.09-7.27s26.28,2.42,36.84,7.27c10.56,4.85,18.86,11.56,24.9,20.13,6.04,8.57,9.15,18.41,9.34,29.52h-34.39Z"/>
      <path class="st1" d="M940.64,418.44c-.9-8.41-4.67-14.96-11.32-19.65-6.65-4.69-15.27-7.03-25.86-7.03-7.45,0-13.84,1.12-19.17,3.37-5.33,2.25-9.41,5.3-12.23,9.15-2.83,3.85-4.27,8.25-4.34,13.19,0,4.11.95,7.67,2.84,10.69,1.89,3.02,4.48,5.57,7.75,7.66,3.27,2.09,6.9,3.84,10.88,5.25,3.98,1.41,8,2.6,12.04,3.56l18.49,4.62c7.45,1.73,14.63,4.08,21.53,7.03,6.9,2.96,13.1,6.68,18.59,11.17,5.49,4.5,9.84,9.92,13.05,16.28,3.21,6.36,4.82,13.81,4.82,22.35,0,11.56-2.95,21.72-8.86,30.49-5.91,8.77-14.43,15.61-25.57,20.52-11.14,4.91-24.61,7.37-40.41,7.37s-28.66-2.38-39.93-7.13c-11.27-4.75-20.07-11.69-26.39-20.81-6.33-9.12-9.74-20.23-10.26-33.33h35.16c.51,6.87,2.63,12.59,6.36,17.14,3.72,4.56,8.59,7.96,14.59,10.21,6,2.25,12.73,3.37,20.18,3.37s14.59-1.17,20.47-3.52c5.88-2.34,10.48-5.62,13.82-9.82,3.34-4.2,5.04-9.13,5.11-14.79-.06-5.14-1.57-9.39-4.53-12.76-2.95-3.37-7.08-6.19-12.38-8.48-5.3-2.28-11.48-4.32-18.54-6.12l-22.44-5.78c-16.25-4.17-29.08-10.51-38.48-19.02-9.41-8.51-14.11-19.83-14.11-33.96,0-11.62,3.16-21.8,9.49-30.53,6.32-8.73,14.95-15.52,25.86-20.37,10.92-4.85,23.28-7.27,37.09-7.27s26.28,2.42,36.84,7.27c10.56,4.85,18.86,11.56,24.9,20.13,6.04,8.57,9.15,18.41,9.34,29.52h-34.39Z"/>
      <path class="st1" d="M1009.52,561.48v-197.28h73.98c15.16,0,27.89,2.83,38.19,8.48,10.31,5.65,18.11,13.41,23.41,23.26,5.3,9.86,7.95,21.05,7.95,33.57s-2.67,23.89-8,33.72c-5.33,9.82-13.2,17.55-23.6,23.17-10.4,5.62-23.21,8.43-38.43,8.43h-49.03v-29.38h44.21c8.86,0,16.12-1.54,21.77-4.62,5.65-3.08,9.84-7.32,12.57-12.72,2.73-5.4,4.09-11.59,4.09-18.59s-1.37-13.16-4.09-18.49c-2.73-5.33-6.94-9.49-12.62-12.47-5.68-2.99-12.99-4.48-21.91-4.48h-32.75v167.42h-35.74Z"/>
      <path class="st1" d="M1187.53,561.48h-38.15l69.45-197.28h44.12l69.55,197.28h-38.15l-52.69-156.82h-1.54l-52.6,156.82ZM1188.78,484.13h104.03v28.71h-104.03v-28.71Z"/>
      <path class="st1" d="M1518.12,430.77h-36.03c-1.03-5.91-2.92-11.16-5.68-15.75-2.76-4.59-6.2-8.49-10.31-11.7-4.11-3.21-8.78-5.64-14.01-7.27-5.24-1.64-10.87-2.46-16.91-2.46-10.72,0-20.23,2.68-28.51,8.04-8.28,5.36-14.77,13.2-19.46,23.5-4.69,10.31-7.03,22.88-7.03,37.71s2.36,27.79,7.08,38.1c4.72,10.31,11.21,18.08,19.46,23.31,8.25,5.24,17.71,7.85,28.37,7.85,5.91,0,11.45-.78,16.62-2.36,5.17-1.57,9.82-3.9,13.97-6.98,4.14-3.08,7.64-6.87,10.5-11.37,2.86-4.5,4.83-9.63,5.92-15.41l36.03.19c-1.35,9.38-4.25,18.17-8.72,26.39-4.46,8.22-10.29,15.46-17.48,21.72-7.19,6.26-15.6,11.14-25.24,14.64-9.63,3.5-20.33,5.25-32.08,5.25-17.34,0-32.82-4.01-46.43-12.04-13.62-8.03-24.34-19.62-32.17-34.77-7.84-15.16-11.75-33.33-11.75-54.52s3.95-39.45,11.85-54.57c7.9-15.12,18.65-26.7,32.27-34.73,13.61-8.03,29.03-12.04,46.24-12.04,10.98,0,21.19,1.54,30.63,4.62,9.44,3.08,17.85,7.59,25.24,13.53,7.38,5.94,13.47,13.2,18.25,21.77,4.78,8.57,7.91,18.35,9.39,29.33Z"/>
      <path class="st1" d="M1550.97,561.48v-197.28h128.31v29.96h-92.57v53.56h85.92v29.96h-85.92v53.85h93.34v29.96h-129.08Z"/>
      <path class="st1" d="M1823,418.44c-.9-8.41-4.67-14.96-11.32-19.65-6.65-4.69-15.27-7.03-25.86-7.03-7.45,0-13.84,1.12-19.17,3.37-5.33,2.25-9.41,5.3-12.23,9.15-2.83,3.85-4.27,8.25-4.34,13.19,0,4.11.95,7.67,2.84,10.69,1.89,3.02,4.48,5.57,7.75,7.66,3.27,2.09,6.9,3.84,10.88,5.25,3.98,1.41,8,2.6,12.04,3.56l18.49,4.62c7.45,1.73,14.63,4.08,21.53,7.03,6.9,2.96,13.1,6.68,18.59,11.17,5.49,4.5,9.84,9.92,13.05,16.28,3.21,6.36,4.82,13.81,4.82,22.35,0,11.56-2.95,21.72-8.86,30.49-5.91,8.77-14.43,15.61-25.57,20.52-11.14,4.91-24.61,7.37-40.41,7.37s-28.66-2.38-39.93-7.13c-11.27-4.75-20.07-11.69-26.39-20.81-6.33-9.12-9.74-20.23-10.26-33.33h35.16c.51,6.87,2.63,12.59,6.36,17.14,3.72,4.56,8.59,7.96,14.59,10.21,6,2.25,12.73,3.37,20.18,3.37s14.59-1.17,20.47-3.52c5.88-2.34,10.48-5.62,13.82-9.82,3.34-4.2,5.04-9.13,5.11-14.79-.06-5.14-1.57-9.39-4.53-12.76-2.95-3.37-7.08-6.19-12.38-8.48-5.3-2.28-11.48-4.32-18.54-6.12l-22.44-5.78c-16.25-4.17-29.08-10.51-38.48-19.02-9.41-8.51-14.11-19.83-14.11-33.96,0-11.62,3.16-21.8,9.49-30.53,6.32-8.73,14.95-15.52,25.86-20.37,10.92-4.85,23.28-7.27,37.09-7.27s26.28,2.42,36.84,7.27c10.56,4.85,18.86,11.56,24.9,20.13,6.04,8.57,9.15,18.41,9.34,29.52h-34.39Z"/>
    </g>
    <path class="st1" d="M871.74,311.04v46.85h-7.55l-22.07-31.91h-.39v31.91h-8.49v-46.85h7.59l22.05,31.93h.41v-31.93h8.44Z"/>
  </g>
</svg>